<svg viewBox="0 0 21 19" xmlns="http://www.w3.org/2000/svg" xmlns:xlink="http://www.w3.org/1999/xlink" width="21.000000" height="19.000000" fill="none" customFrame="#000000">
	<path id="Vector" d="M9.89643 3.79738C12.0639 3.43302 13.7693 4.98162 14.0738 6.73892C14.4532 8.92847 12.8952 10.641 11.129 10.9487C8.97903 11.3233 7.1892 9.77425 6.91706 7.98726C6.58283 5.79256 8.06156 4.10583 9.89643 3.79738ZM16.5882 19C16.8552 18.9203 17.5756 18.2443 17.7752 18.0567C18.8277 17.0675 19.7847 15.6549 20.3135 14.2415C21.1533 11.9971 21.2672 9.33642 20.4063 7.05085C19.7056 5.19067 18.8172 3.86087 17.4012 2.60634C12.8343 -1.43959 5.77896 -0.696729 2.04635 4.2903C-0.783113 8.07068 -0.635693 13.2751 2.22399 16.9635C2.55258 17.3873 3.91386 18.8527 4.40319 18.9997C4.40319 17.1998 4.11938 15.4131 5.50539 14.1507C6.85535 12.9212 8.35978 13.1869 10.4967 13.1869C12.6249 13.1869 14.1495 12.9184 15.488 14.1508C16.893 15.4444 16.5749 17.18 16.5882 19Z" fill="rgb(66.9375,66.9375,66.9375)" fill-rule="evenodd" />
</svg>
