<svg viewBox="0 0 19 19" xmlns="http://www.w3.org/2000/svg" xmlns:xlink="http://www.w3.org/1999/xlink" width="19.000000" height="19.000000" fill="none" customFrame="#000000">
	<path id="basket" d="M15.3265 5.31205L15.3265 2.8604C15.3265 1.28349 14.2344 0 12.8656 0L6.15646 0C4.78764 0 3.67313 1.28303 3.67313 2.8604L3.67313 5.31158L1.08047 5.31158C0.48377 5.31158 0 5.8689 0 6.55632L0 9.26217C0 9.95005 0.48377 10.5069 1.08047 10.5069L1.40245 10.5069L2.58305 17.9786C2.67636 18.57 3.12408 19 3.6459 19L15.3765 19C15.8987 19 16.3457 18.57 16.4394 17.9781L17.6192 10.5069L17.9195 10.5069C18.5162 10.5069 19 9.95005 19 9.26217L19 6.55632C19 5.8689 18.5162 5.31158 17.9195 5.31158L15.3265 5.31205ZM5.67469 2.8604C5.67469 2.5596 5.89535 2.30585 6.15646 2.30585L12.8668 2.30585C13.1275 2.30585 13.3257 2.5596 13.3257 2.8604L13.3257 5.31158L5.67469 5.31158L5.67469 2.8604ZM7.16925 14.5516C7.16925 15.03 6.83726 15.4176 6.42197 15.4176C6.00708 15.4176 5.67469 15.03 5.67469 14.5516L5.67469 9.7978C5.67469 9.31938 6.00708 8.9323 6.42197 8.9323C6.83766 8.9323 7.16925 9.3203 7.16925 9.7978L7.16925 14.5516ZM10.2601 14.5516C10.2601 15.03 9.9277 15.4176 9.51281 15.4176C9.09793 15.4176 8.76513 15.03 8.76513 14.5516L8.76513 9.7978C8.76513 9.31938 9.09793 8.9323 9.51281 8.9323C9.9281 8.9323 10.2601 9.3203 10.2601 9.7978L10.2601 14.5516ZM13.3509 14.5516C13.3509 15.03 13.0185 15.4176 12.6041 15.4176C12.1888 15.4176 11.8564 15.03 11.8564 14.5516L11.8564 9.7978C11.8564 9.31938 12.1888 8.9323 12.6041 8.9323C13.0185 8.9323 13.3509 9.3203 13.3509 9.7978L13.3509 14.5516Z" fill="rgb(66.9375,66.9375,66.9375)" fill-rule="nonzero" />
</svg>
