<svg viewBox="0 0 21 18" xmlns="http://www.w3.org/2000/svg" xmlns:xlink="http://www.w3.org/1999/xlink" width="21.000000" height="18.000000" fill="none" customFrame="#000000">
	<path id="Vector" d="M4.9072 17.9801C4.40711 17.9239 3.73406 17.7337 3.27772 17.5198C2.64426 17.2237 2.15042 16.867 1.63573 16.331C0.566777 15.2201 0 13.7915 0 12.2115C0 11.2843 0.177118 10.4738 0.562609 9.62441C1.51696 7.5236 4.05079 4.79816 7.6369 2.00788C8.89131 1.03312 10.3666 0 10.5083 0C10.6542 0 12.4628 1.28383 13.7006 2.26508C17.1388 4.99268 19.4705 7.5344 20.429 9.60064C20.7394 10.2685 20.8916 10.8153 20.9749 11.5545C21.0166 11.9262 21.0041 12.754 20.9541 13.0825C20.8561 13.7093 20.6894 14.254 20.4331 14.7943C19.6226 16.5018 18.1035 17.6646 16.3157 17.9499C16.0052 17.9996 15.4009 18.0147 15.0758 17.9844C13.8506 17.8656 12.7212 17.3641 11.6168 16.4521C11.4793 16.3375 11.1709 16.0436 10.9313 15.7972L10.4979 15.3498L10.3666 15.4924C10.2958 15.5724 10.2124 15.6675 10.1832 15.7021C10.0978 15.8101 9.57061 16.3029 9.3289 16.4996C8.35371 17.3015 7.33059 17.7791 6.22621 17.952C5.96574 17.9931 5.16975 18.0104 4.9072 17.9801Z" fill="rgb(66.9375,66.9375,66.9375)" fill-rule="nonzero" transform="matrix(1,0,0,-1,0,18)" />
</svg>
