<?xml version="1.0"?>
<svg width="21" height="18" xmlns="http://www.w3.org/2000/svg" xmlns:svg="http://www.w3.org/2000/svg">
 <g class="layer">
  <title>Layer 1</title>
  <path d="m4.91,0.02c-0.5,0.06 -1.18,0.25 -1.63,0.46c-0.64,0.3 -1.13,0.65 -1.64,1.19c-1.07,1.11 -1.64,2.54 -1.64,4.12c0,0.93 0.18,1.74 0.56,2.59c0.96,2.1 3.49,4.82 7.08,7.61c1.25,0.98 2.73,2.01 2.87,2.01c0.14,0 1.95,-1.28 3.19,-2.27c3.44,-2.72 5.77,-5.26 6.73,-7.33c0.31,-0.67 0.46,-1.22 0.54,-1.95c0.05,-0.38 0.03,-1.2 -0.02,-1.53c-0.09,-0.63 -0.26,-1.17 -0.52,-1.71c-0.81,-1.71 -2.33,-2.87 -4.11,-3.16c-0.31,-0.05 -0.92,-0.06 -1.24,-0.03c-1.23,0.11 -2.36,0.62 -3.46,1.53c-0.14,0.11 -0.45,0.41 -0.69,0.65l-0.43,0.45l-0.13,-0.14c-0.07,-0.08 -0.16,-0.18 -0.19,-0.21c-0.08,-0.11 -0.61,-0.6 -0.85,-0.8c-0.98,-0.8 -2,-1.28 -3.1,-1.45c-0.26,-0.04 -1.06,-0.06 -1.32,-0.03z" fill="#ee0f0f" fill-rule="nonzero" id="Vector"/>
 </g>
</svg>