<svg viewBox="0 0 18 18" xmlns="http://www.w3.org/2000/svg" xmlns:xlink="http://www.w3.org/1999/xlink" width="18.000000" height="18.000000" fill="none" customFrame="#000000">
	<path id="Vector" d="M0.286151 1.66817C-0.0953835 1.28664 -0.0953835 0.667685 0.286151 0.286151C0.667685 -0.0953835 1.28664 -0.0953835 1.66817 0.286151L9 7.61798L16.3318 0.286151C16.7134 -0.0953835 17.3323 -0.0953835 17.7139 0.286151C18.0954 0.667685 18.0954 1.28664 17.7139 1.66817L10.382 9L17.7139 16.3318C18.0954 16.7134 18.0954 17.3323 17.7139 17.7139C17.3323 18.0954 16.7134 18.0954 16.3318 17.7139L9 10.382L1.66817 17.7139C1.28664 18.0954 0.667685 18.0954 0.286151 17.7139C-0.0953835 17.3323 -0.0953835 16.7134 0.286151 16.3318L7.61798 9L0.286151 1.66817Z" fill="rgb(196,196,196)" fill-rule="nonzero" />
</svg>
