<svg viewBox="0 0 24 24" xmlns="http://www.w3.org/2000/svg" xmlns:xlink="http://www.w3.org/1999/xlink" width="24.000000" height="24.000000" fill="none">
	<rect id="favorites" width="24.000000" height="24.000000" x="0.000000" y="0.000000" fill="rgb(255,255,255)" fill-opacity="0" />
	<path id="Vector" d="M22.0961 3.4021C20.8537 2.05463 19.149 1.3125 17.2956 1.3125C15.9102 1.3125 14.6415 1.75049 13.5245 2.6142C12.9609 3.05017 12.4503 3.58356 12 4.20612C11.5499 3.58374 11.0391 3.05017 10.4753 2.6142C9.35852 1.75049 8.08978 1.3125 6.70441 1.3125C4.85101 1.3125 3.14612 2.05463 1.90375 3.4021C0.676208 4.73383 0 6.55316 0 8.52521C0 10.5549 0.756409 12.4129 2.38037 14.3725C3.83313 16.1254 5.92108 17.9048 8.33899 19.9653C9.16461 20.6689 10.1005 21.4666 11.0722 22.3162C11.3289 22.541 11.6583 22.6648 12 22.6648C12.3415 22.6648 12.6711 22.541 12.9274 22.3165C13.8992 21.4667 14.8356 20.6688 15.6616 19.9647C18.0791 17.9046 20.1671 16.1254 21.6198 14.3723C23.2438 12.4129 24 10.5549 24 8.52502C24 6.55316 23.3238 4.73383 22.0961 3.4021Z" fill="rgb(189.125,189.125,189.125)" fill-opacity="0" fill-rule="nonzero" />
	<path id="Vector" d="M11.3461 3.40985C11.0723 3.11676 10.7816 2.85107 10.4753 2.6142C9.35852 1.75049 8.08978 1.3125 6.70441 1.3125C4.85101 1.3125 3.14612 2.05463 1.90375 3.4021C0.676208 4.73383 0 6.55316 0 8.52521C0 10.5549 0.756409 12.4129 2.38037 14.3725C3.83313 16.1254 5.92108 17.9048 8.33899 19.9653C9.16461 20.6689 10.1005 21.4666 11.0722 22.3162C11.3289 22.541 11.6583 22.6648 12 22.6648C12.3415 22.6648 12.6711 22.541 12.9274 22.3165C13.8992 21.4667 14.8356 20.6688 15.6616 19.9647C18.0791 17.9046 20.1671 16.1254 21.6198 14.3723C23.2438 12.4129 24 10.5549 24 8.52502C24 6.55316 23.3238 4.73383 22.0961 3.4021C20.8537 2.05463 19.149 1.3125 17.2956 1.3125C15.9102 1.3125 14.6415 1.75049 13.5245 2.6142C13.2183 2.85109 12.9277 3.11674 12.6539 3.40983C12.4238 3.65614 12.2056 3.92183 12 4.20612C11.7945 3.92189 11.5762 3.65619 11.3461 3.40985ZM15.8056 2.52945C16.2803 2.38482 16.7769 2.3125 17.2956 2.3125C17.8448 2.3125 18.3723 2.38642 18.8783 2.53425C19.0982 2.5985 19.3141 2.67671 19.5258 2.76889C19.7931 2.88522 20.0477 3.02113 20.2897 3.17663C20.6794 3.42696 21.0364 3.72805 21.3608 4.07991C21.4699 4.19823 21.5737 4.32062 21.6723 4.44711C22.0481 4.9293 22.3477 5.47089 22.5711 6.07189C22.5943 6.13445 22.6166 6.19734 22.638 6.26054C22.8793 6.97459 23 7.72941 23 8.52502C23 8.88269 22.9723 9.23596 22.917 9.58486C22.8356 10.0988 22.6941 10.6032 22.4927 11.0981C22.1439 11.9548 21.5963 12.8335 20.8498 13.7342C20.2294 14.483 19.3884 15.3435 18.3271 16.3159C17.8856 16.7204 17.361 17.1859 16.7535 17.7124C16.3833 18.0332 15.8032 18.5302 15.0133 19.2033L15.0129 19.2037L15.0028 19.2123L15.0003 19.2144L14.999 19.2155L14.9977 19.2166L14.9927 19.2209C13.8227 20.2181 12.9147 20.9992 12.2686 21.5642C12.2315 21.5968 12.1912 21.6214 12.1479 21.6382C12.1021 21.6559 12.0528 21.6648 12 21.6648C11.9491 21.6648 11.9013 21.6565 11.8566 21.6398C11.8114 21.6229 11.7693 21.5974 11.7304 21.5633C11.0799 20.9945 10.1662 20.2087 8.98938 19.2057L8.9876 19.2041C8.1978 18.5311 7.61764 18.034 7.2471 17.7129C6.63951 17.1864 6.1149 16.7208 5.67328 16.3162C4.61183 15.3437 3.77085 14.4831 3.15034 13.7344C2.40381 12.8336 1.85616 11.9548 1.50739 11.0981C1.30542 10.602 1.16375 10.0963 1.08237 9.58117C1.02746 9.23352 1 8.88153 1 8.52521C1 7.72933 1.12072 6.97427 1.36217 6.26001C1.38348 6.19698 1.40573 6.13427 1.42891 6.07188C1.65251 5.47019 1.95248 4.92806 2.32881 4.44549C2.42699 4.31959 2.53037 4.19774 2.63895 4.07995C2.96318 3.72829 3.32 3.42733 3.70941 3.17708C3.95168 3.0214 4.20656 2.88533 4.47405 2.7689C4.68596 2.67666 4.90195 2.59841 5.12202 2.53413C5.62791 2.38638 6.15537 2.3125 6.70441 2.3125C7.22352 2.3125 7.72054 2.38493 8.19547 2.52979C8.78561 2.70978 9.34163 3.00161 9.86355 3.40526C10.3524 3.78331 10.7945 4.24559 11.1897 4.7921L12 5.91258L12.8103 4.79215C13.2056 4.24559 13.6476 3.7833 14.1363 3.40527C14.6586 3.00136 15.2151 2.70942 15.8056 2.52945Z" fill="rgb(66.9375,66.9375,66.9375)" fill-rule="evenodd" />
</svg>
