<svg viewBox="0 0 21 19" xmlns="http://www.w3.org/2000/svg" xmlns:xlink="http://www.w3.org/1999/xlink" width="21.000000" height="19.000000" fill="none" customFrame="#000000">
	<g id="Group 12">
		<path id="Line 3 (Stroke)" d="M0 3.5C0 2.94772 0.447715 2.5 1 2.5L20 2.5C20.5523 2.5 21 2.94772 21 3.5C21 4.05228 20.5523 4.5 20 4.5L1 4.5C0.447715 4.5 0 4.05228 0 3.5Z" fill="rgb(66.9375,66.9375,66.9375)" fill-rule="evenodd" />
		<path id="Line 4 (Stroke)" d="M0 15C0 14.4477 0.447715 14 1 14L20 14C20.5523 14 21 14.4477 21 15C21 15.5523 20.5523 16 20 16L1 16C0.447715 16 0 15.5523 0 15Z" fill="rgb(66.9375,66.9375,66.9375)" fill-rule="evenodd" />
		<circle id="Ellipse 17" cx="14.5" cy="3.5" r="3.5" fill="rgb(255,255,255)" />
		<circle id="Ellipse 17" cx="14.5" cy="3.5" r="2.5" stroke="rgb(66.9375,66.9375,66.9375)" stroke-width="2" />
		<circle id="Ellipse 18" cx="6.5" cy="15.5" r="3.5" fill="rgb(255,255,255)" />
		<circle id="Ellipse 18" cx="6.5" cy="15.5" r="2.5" stroke="rgb(66.9375,66.9375,66.9375)" stroke-width="2" />
	</g>
</svg>
